M48
INCH,LZ
;FILE_FORMAT=2:4
;TYPE=PLATED
;Layer: PTH_Through_Via
;EasyEDA v6.5.40, 2024-07-22 10:49:34
;10
;Gerber Generator version 0.2
;Holesize 1 = 0.0120 inch
T01C0.0120
%
G05
G90
T01
X005251Y-009284
X021327Y-004012
X020023Y-010430
X008302Y-012611
X006527Y-003832
X009990Y-009513
X014126Y-009666
X014139Y-005215
X014223Y-004610
X010664Y-006890
X006352Y-020290
X011521Y-020340
X010788Y-002741
X007719Y-006932
X005813Y-007832
X004366Y-010588
X006017Y-011039
X005377Y-011724
X006132Y-008094
X013436Y-011529
X012971Y-009187
X007943Y-013296
X012102Y-006235
X012187Y-004119
X010526Y-007669
X010149Y-008045
X020365Y-012861
X019774Y-006784
X017665Y-014130
X017270Y-007517
X007510Y-018315
X007911Y-014790
X010670Y-003629
X007156Y-018324
X007433Y-015385
X007128Y-012076
X006467Y-009157
X006371Y-014595
X016751Y-008957
X016751Y-013278
X012985Y-018824
X017203Y-015603
X020642Y-007339
X020603Y-010134
X019269Y-006547
M30
