G04 Layer: BottomLayer*
G04 EasyEDA v6.5.40, 2024-07-22 10:49:34*
G04 Gerber Generator version 0.2*
G04 Scale: 100 percent, Rotated: No, Reflected: No *
G04 Dimensions in inches *
G04 leading zeros omitted , absolute positions ,3 integer and 6 decimal *
%FSLAX36Y36*%
%MOIN*%

%ADD10C,0.0100*%
%ADD11C,0.0630*%
%ADD12O,0.11810999999999999X0.059054999999999996*%
%ADD13R,0.1181X0.1181*%
%ADD14R,0.0630X0.0630*%
%ADD15C,0.0240*%

%LPD*%
D10*
X155000Y-1340000D02*
G01*
X155000Y-1269929D01*
X2132719Y-401219D02*
G01*
X2002280Y-531660D01*
X2002280Y-1043029D01*
X997380Y-951269D02*
G01*
X830190Y-1118460D01*
X830190Y-1261080D01*
X997380Y-951269D02*
G01*
X998969Y-951269D01*
X652660Y-383159D02*
G01*
X652660Y-606550D01*
X997380Y-951269D01*
X1412560Y-966599D02*
G01*
X1413900Y-965259D01*
X1413900Y-521489D01*
X1075680Y-698279D02*
G01*
X1066379Y-688980D01*
X635239Y-2028989D02*
G01*
X1075680Y-1588550D01*
X1075680Y-698279D01*
X1075680Y-698279D02*
G01*
X1184979Y-698279D01*
X1422259Y-460999D01*
X1090110Y-386410D02*
G01*
X1380320Y-386410D01*
X1445600Y-451689D01*
X1445600Y-1637249D01*
X1152070Y-1930779D01*
X1152070Y-2033989D01*
X771949Y-693220D02*
G01*
X1078760Y-386410D01*
X1090110Y-386410D01*
X1090110Y-386410D02*
G01*
X1090110Y-285500D01*
X1078760Y-274149D01*
X581309Y-783150D02*
G01*
X581309Y-914149D01*
X436649Y-1058809D01*
X613200Y-809420D02*
G01*
X613200Y-1092319D01*
X601669Y-1103850D01*
X537699Y-1172429D02*
G01*
X537699Y-1167820D01*
X601669Y-1103850D01*
X165000Y-355000D02*
G01*
X235070Y-355000D01*
X235070Y-355000D02*
G01*
X613200Y-733130D01*
X613200Y-809420D01*
X1343559Y-1152880D02*
G01*
X1297120Y-1106439D01*
X1297120Y-918659D01*
X794319Y-1329639D02*
G01*
X1022160Y-1101799D01*
X1022160Y-804520D01*
X1022160Y-804520D02*
G01*
X1052610Y-774070D01*
X1052610Y-766860D01*
X1014949Y-804520D02*
G01*
X1022160Y-804520D01*
X1210209Y-623530D02*
G01*
X1210209Y-420419D01*
X1218739Y-411889D01*
X1977380Y-678359D02*
G01*
X1977380Y-1226950D01*
X2036490Y-1286060D01*
X1766530Y-1412989D02*
G01*
X1766530Y-791269D01*
X1726999Y-751739D01*
X750979Y-1831500D02*
G01*
X791090Y-1791390D01*
X791090Y-1479000D01*
X743310Y-1538519D02*
G01*
X743310Y-820039D01*
X627280Y-704009D01*
X627280Y-368449D01*
X640900Y-354830D01*
X1058999Y-354830D01*
X1067039Y-362869D01*
X715579Y-1832359D02*
G01*
X715579Y-1566250D01*
X743310Y-1538519D01*
X2475000Y-345000D02*
G01*
X2475000Y-680000D01*
X2650000Y-855000D01*
X2650000Y-855000D02*
G01*
X2650000Y-1255000D01*
X2640000Y-1935000D02*
G01*
X2640000Y-1535000D01*
X2640000Y-1535000D02*
G01*
X2650000Y-1525000D01*
X2650000Y-1255000D01*
X712790Y-1207559D02*
G01*
X646660Y-1141430D01*
X646660Y-915659D01*
X637139Y-1459549D02*
G01*
X637139Y-925180D01*
X646660Y-915659D01*
X155000Y-1919929D02*
G01*
X615380Y-1459549D01*
X637139Y-1459549D01*
X155000Y-1990000D02*
G01*
X155000Y-1919929D01*
X1675050Y-1327809D02*
G01*
X1675050Y-895689D01*
X1779939Y-1785000D02*
G01*
X1779939Y-1461010D01*
X1675050Y-1356120D01*
X1675050Y-1327809D01*
X1850000Y-1785000D02*
G01*
X1779939Y-1785000D01*
X1298549Y-1882379D02*
G01*
X1398220Y-1882379D01*
X1720330Y-1560270D01*
X2060299Y-1013359D02*
G01*
X2060299Y-737829D01*
X2064239Y-733890D01*
X2440000Y-1735000D02*
G01*
X1926899Y-1221900D01*
X1926899Y-654729D01*
X2675000Y-545000D02*
G01*
X2675000Y-145000D01*
X155000Y-1269929D02*
G01*
X183589Y-1269929D01*
X525129Y-928389D01*
D11*
G01*
X2475000Y-345000D03*
G01*
X2475000Y-245000D03*
D12*
G01*
X2675000Y-545000D03*
G01*
X2675000Y-145000D03*
D11*
G01*
X2450000Y-1055000D03*
G01*
X2450000Y-955000D03*
D12*
G01*
X2650000Y-1255000D03*
G01*
X2650000Y-855000D03*
D11*
G01*
X2440000Y-1735000D03*
G01*
X2440000Y-1635000D03*
D12*
G01*
X2640000Y-1935000D03*
G01*
X2640000Y-1535000D03*
D13*
G01*
X155000Y-1990000D03*
G01*
X1850000Y-1785000D03*
D14*
G01*
X165000Y-990000D03*
D13*
G01*
X165000Y-355000D03*
G01*
X155000Y-670000D03*
G01*
X155000Y-1340000D03*
G01*
X150000Y-1655000D03*
D15*
G01*
X525129Y-928389D03*
G01*
X2132719Y-401219D03*
G01*
X2002280Y-1043029D03*
G01*
X830190Y-1261080D03*
G01*
X652660Y-383159D03*
G01*
X998969Y-951269D03*
G01*
X1412560Y-966599D03*
G01*
X1413900Y-521489D03*
G01*
X1422259Y-460999D03*
G01*
X1066379Y-688980D03*
G01*
X635239Y-2028989D03*
G01*
X1152070Y-2033989D03*
G01*
X1078760Y-274149D03*
G01*
X771949Y-693220D03*
G01*
X581309Y-783150D03*
G01*
X436649Y-1058809D03*
G01*
X601669Y-1103850D03*
G01*
X537699Y-1172429D03*
G01*
X613200Y-809420D03*
G01*
X1343559Y-1152880D03*
G01*
X1297120Y-918659D03*
G01*
X794319Y-1329639D03*
G01*
X1210209Y-623530D03*
G01*
X1218739Y-411889D03*
G01*
X1052610Y-766860D03*
G01*
X1014949Y-804520D03*
G01*
X2036490Y-1286060D03*
G01*
X1977380Y-678359D03*
G01*
X1766530Y-1412989D03*
G01*
X1726999Y-751739D03*
G01*
X750979Y-1831500D03*
G01*
X791090Y-1479000D03*
G01*
X1067039Y-362869D03*
G01*
X715579Y-1832359D03*
G01*
X743310Y-1538519D03*
G01*
X712790Y-1207559D03*
G01*
X646660Y-915659D03*
G01*
X637139Y-1459549D03*
G01*
X1675050Y-895689D03*
G01*
X1675050Y-1327809D03*
G01*
X1298549Y-1882379D03*
G01*
X1720330Y-1560270D03*
G01*
X2064239Y-733890D03*
G01*
X2060299Y-1013359D03*
G01*
X1926899Y-654729D03*
M02*
