G04 Layer: TopPasteMaskLayer*
G04 EasyEDA v6.5.40, 2024-07-22 10:49:34*
G04 Gerber Generator version 0.2*
G04 Scale: 100 percent, Rotated: No, Reflected: No *
G04 Dimensions in inches *
G04 leading zeros omitted , absolute positions ,3 integer and 6 decimal *
%FSLAX36Y36*%
%MOIN*%

%ADD10R,0.0630X0.0276*%
%ADD11R,0.0276X0.0630*%
%ADD12O,0.098425X0.055118*%
%ADD13R,0.0354X0.0630*%
%ADD14R,0.0630X0.0354*%
%ADD15O,0.027559X0.08661400000000001*%

%LPD*%
D10*
G01*
X795000Y-489879D03*
G01*
X795000Y-600120D03*
D11*
G01*
X1795119Y-1090000D03*
G01*
X1684880Y-1090000D03*
D10*
G01*
X590000Y-379879D03*
G01*
X590000Y-490120D03*
G01*
X875000Y-290120D03*
G01*
X875000Y-179879D03*
G01*
X805000Y-744879D03*
G01*
X805000Y-855120D03*
D11*
G01*
X1264880Y-870000D03*
G01*
X1375119Y-870000D03*
D10*
G01*
X1940000Y-604879D03*
G01*
X1940000Y-715120D03*
D11*
G01*
X449879Y-1645000D03*
G01*
X560120Y-1645000D03*
D10*
G01*
X1930000Y-1419879D03*
G01*
X1930000Y-1530120D03*
D11*
G01*
X1264880Y-1790000D03*
G01*
X1375119Y-1790000D03*
D10*
G01*
X1555000Y-2019879D03*
G01*
X1555000Y-2130120D03*
D12*
G01*
X2215000Y-2090000D03*
G01*
X2075000Y-2090000D03*
G01*
X1645000Y-215000D03*
G01*
X1505000Y-215000D03*
D13*
G01*
X862280Y-1073499D03*
G01*
X748110Y-1073499D03*
D14*
G01*
X1268500Y-297719D03*
G01*
X1268500Y-411889D03*
G01*
X773500Y-1267719D03*
G01*
X773500Y-1381889D03*
D13*
G01*
X1007719Y-411500D03*
G01*
X1121890Y-411500D03*
G01*
X747280Y-243499D03*
G01*
X633110Y-243499D03*
D14*
G01*
X1378500Y-602719D03*
G01*
X1378500Y-716889D03*
G01*
X1491499Y-462280D03*
G01*
X1491499Y-348110D03*
G01*
X1068500Y-947719D03*
G01*
X1068500Y-1061889D03*
D13*
G01*
X1312719Y-1406500D03*
G01*
X1426890Y-1406500D03*
D14*
G01*
X2131499Y-1387280D03*
G01*
X2131499Y-1273110D03*
D13*
G01*
X692719Y-1696500D03*
G01*
X806890Y-1696500D03*
D14*
G01*
X923500Y-1762719D03*
G01*
X923500Y-1876889D03*
D13*
G01*
X1217280Y-1613499D03*
G01*
X1103109Y-1613499D03*
G01*
X1657280Y-1813499D03*
G01*
X1543109Y-1813499D03*
G01*
X1792719Y-2051500D03*
G01*
X1906890Y-2051500D03*
D14*
G01*
X996499Y-2137280D03*
G01*
X996499Y-2023110D03*
D13*
G01*
X627719Y-1881500D03*
G01*
X741889Y-1881500D03*
G01*
X1207719Y-2076500D03*
G01*
X1321890Y-2076500D03*
G01*
X447719Y-2071500D03*
G01*
X561889Y-2071500D03*
G01*
X1392719Y-1016500D03*
G01*
X1506890Y-1016500D03*
G01*
X1307719Y-1186500D03*
G01*
X1421890Y-1186500D03*
G01*
X587280Y-1053499D03*
G01*
X473110Y-1053499D03*
G01*
X1042719Y-236500D03*
G01*
X1156890Y-236500D03*
G01*
X852280Y-2083499D03*
G01*
X738110Y-2083499D03*
D14*
G01*
X2136499Y-712280D03*
G01*
X2136499Y-598110D03*
D13*
G01*
X1837719Y-306500D03*
G01*
X1951890Y-306500D03*
G01*
X2132719Y-351500D03*
G01*
X2246890Y-351500D03*
D15*
G01*
X455000Y-874000D03*
G01*
X505000Y-874000D03*
G01*
X555000Y-874000D03*
G01*
X605000Y-874000D03*
G01*
X455000Y-635999D03*
G01*
X505000Y-635999D03*
G01*
X555000Y-635999D03*
G01*
X605000Y-635999D03*
G01*
X455000Y-1469000D03*
G01*
X505000Y-1469000D03*
G01*
X555000Y-1469000D03*
G01*
X605000Y-1469000D03*
G01*
X455000Y-1230999D03*
G01*
X505000Y-1230999D03*
G01*
X555000Y-1230999D03*
G01*
X605000Y-1230999D03*
G01*
X980000Y-864000D03*
G01*
X1030000Y-864000D03*
G01*
X1080000Y-864000D03*
G01*
X1130000Y-864000D03*
G01*
X980000Y-625999D03*
G01*
X1030000Y-625999D03*
G01*
X1080000Y-625999D03*
G01*
X1130000Y-625999D03*
G01*
X975000Y-1479000D03*
G01*
X1025000Y-1479000D03*
G01*
X1075000Y-1479000D03*
G01*
X1125000Y-1479000D03*
G01*
X975000Y-1240999D03*
G01*
X1025000Y-1240999D03*
G01*
X1075000Y-1240999D03*
G01*
X1125000Y-1240999D03*
G01*
X1615000Y-834000D03*
G01*
X1665000Y-834000D03*
G01*
X1715000Y-834000D03*
G01*
X1765000Y-834000D03*
G01*
X1615000Y-595999D03*
G01*
X1665000Y-595999D03*
G01*
X1715000Y-595999D03*
G01*
X1765000Y-595999D03*
G01*
X1600000Y-1504000D03*
G01*
X1650000Y-1504000D03*
G01*
X1700000Y-1504000D03*
G01*
X1750000Y-1504000D03*
G01*
X1600000Y-1265999D03*
G01*
X1650000Y-1265999D03*
G01*
X1700000Y-1265999D03*
G01*
X1750000Y-1265999D03*
G01*
X2080000Y-1124000D03*
G01*
X2130000Y-1124000D03*
G01*
X2180000Y-1124000D03*
G01*
X2230000Y-1124000D03*
G01*
X2080000Y-885999D03*
G01*
X2130000Y-885999D03*
G01*
X2180000Y-885999D03*
G01*
X2230000Y-885999D03*
M02*
