G04 Layer: TopSolderMaskLayer*
G04 EasyEDA v6.5.40, 2024-07-22 10:49:34*
G04 Gerber Generator version 0.2*
G04 Scale: 100 percent, Rotated: No, Reflected: No *
G04 Dimensions in inches *
G04 leading zeros omitted , absolute positions ,3 integer and 6 decimal *
%FSLAX36Y36*%
%MOIN*%

%AMMACRO1*1,1,$1,$2,$3*1,1,$1,$4,$5*1,1,$1,0-$2,0-$3*1,1,$1,0-$4,0-$5*20,1,$1,$2,$3,$4,$5,0*20,1,$1,$4,$5,0-$2,0-$3,0*20,1,$1,0-$2,0-$3,0-$4,0-$5,0*20,1,$1,0-$4,0-$5,$2,$3,0*4,1,4,$2,$3,$4,$5,0-$2,0-$3,0-$4,0-$5,$2,$3,0*%
%ADD10R,0.0709X0.0354*%
%ADD11MACRO1,0.0079X-0.0138X0.0315X0.0138X0.0315*%
%ADD12MACRO1,0.0079X0.0315X0.0138X0.0315X-0.0138*%
%ADD13MACRO1,0.0079X0.0138X-0.0315X-0.0138X-0.0315*%
%ADD14O,0.102425X0.059118000000000004*%
%ADD15MACRO1,0.004X0.0177X-0.0315X-0.0177X-0.0315*%
%ADD16MACRO1,0.004X0.0315X0.0177X0.0315X-0.0177*%
%ADD17MACRO1,0.004X-0.0177X0.0315X0.0177X0.0315*%
%ADD18R,0.0670X0.0394*%
%ADD19O,0.031559X0.09061400000000001*%
%ADD20C,0.0670*%
%ADD21O,0.12611X0.067055*%
%ADD22MACRO1,0.004X-0.0591X0.0591X0.0591X0.0591*%
%ADD23MACRO1,0.008X-0.0315X0.0315X0.0315X0.0315*%
%ADD24MACRO1,0.008X-0.0591X0.0591X0.0591X0.0591*%

%LPD*%
D10*
G01*
X795000Y-489879D03*
G01*
X795000Y-600120D03*
D11*
G01*
X1795117Y-1089997D03*
G01*
X1684882Y-1089997D03*
D10*
G01*
X590000Y-379879D03*
G01*
X590000Y-490120D03*
D12*
G01*
X875003Y-290117D03*
G01*
X875003Y-179882D03*
D10*
G01*
X805000Y-744879D03*
G01*
X805000Y-855120D03*
D13*
G01*
X1264882Y-870002D03*
G01*
X1375117Y-870002D03*
D10*
G01*
X1940000Y-604879D03*
G01*
X1940000Y-715120D03*
D13*
G01*
X449882Y-1645002D03*
G01*
X560117Y-1645002D03*
D10*
G01*
X1930000Y-1419879D03*
G01*
X1930000Y-1530120D03*
D13*
G01*
X1264882Y-1790002D03*
G01*
X1375117Y-1790002D03*
D10*
G01*
X1555000Y-2019879D03*
G01*
X1555000Y-2130120D03*
D14*
G01*
X2215000Y-2090000D03*
G01*
X2075000Y-2090000D03*
G01*
X1645000Y-215000D03*
G01*
X1505000Y-215000D03*
D15*
G01*
X862282Y-1073504D03*
G01*
X748109Y-1073504D03*
D16*
G01*
X1268503Y-297717D03*
G01*
X1268503Y-411890D03*
G01*
X773504Y-1267717D03*
G01*
X773504Y-1381890D03*
D17*
G01*
X1007717Y-411495D03*
G01*
X1121890Y-411495D03*
D15*
G01*
X747282Y-243504D03*
G01*
X633109Y-243504D03*
D16*
G01*
X1378503Y-602717D03*
G01*
X1378503Y-716890D03*
D18*
G01*
X1491499Y-462280D03*
G01*
X1491499Y-348110D03*
D16*
G01*
X1068503Y-947717D03*
G01*
X1068503Y-1061890D03*
D17*
G01*
X1312717Y-1406495D03*
G01*
X1426890Y-1406495D03*
D18*
G01*
X2131499Y-1387280D03*
G01*
X2131499Y-1273110D03*
D17*
G01*
X692717Y-1696495D03*
G01*
X806890Y-1696495D03*
D16*
G01*
X923503Y-1762717D03*
G01*
X923503Y-1876890D03*
D15*
G01*
X1217282Y-1613504D03*
G01*
X1103109Y-1613504D03*
G01*
X1657282Y-1813504D03*
G01*
X1543109Y-1813504D03*
D17*
G01*
X1792717Y-2051495D03*
G01*
X1906890Y-2051495D03*
D18*
G01*
X996499Y-2137280D03*
G01*
X996499Y-2023110D03*
D17*
G01*
X627717Y-1881495D03*
G01*
X741890Y-1881495D03*
G01*
X1207717Y-2076495D03*
G01*
X1321890Y-2076495D03*
G01*
X447717Y-2071495D03*
G01*
X561890Y-2071495D03*
G01*
X1392717Y-1016495D03*
G01*
X1506890Y-1016495D03*
G01*
X1307717Y-1186495D03*
G01*
X1421890Y-1186495D03*
D15*
G01*
X587282Y-1053504D03*
G01*
X473109Y-1053504D03*
D17*
G01*
X1042717Y-236495D03*
G01*
X1156890Y-236495D03*
D15*
G01*
X852282Y-2083504D03*
G01*
X738109Y-2083504D03*
D18*
G01*
X2136499Y-712280D03*
G01*
X2136499Y-598110D03*
D17*
G01*
X1837717Y-306495D03*
G01*
X1951890Y-306495D03*
G01*
X2132717Y-351495D03*
G01*
X2246890Y-351495D03*
D19*
G01*
X455000Y-874000D03*
G01*
X505000Y-874000D03*
G01*
X555000Y-874000D03*
G01*
X605000Y-874000D03*
G01*
X455000Y-635999D03*
G01*
X505000Y-635999D03*
G01*
X555000Y-635999D03*
G01*
X605000Y-635999D03*
G01*
X455000Y-1469000D03*
G01*
X505000Y-1469000D03*
G01*
X555000Y-1469000D03*
G01*
X605000Y-1469000D03*
G01*
X455000Y-1230999D03*
G01*
X505000Y-1230999D03*
G01*
X555000Y-1230999D03*
G01*
X605000Y-1230999D03*
G01*
X980000Y-864000D03*
G01*
X1030000Y-864000D03*
G01*
X1080000Y-864000D03*
G01*
X1130000Y-864000D03*
G01*
X980000Y-625999D03*
G01*
X1030000Y-625999D03*
G01*
X1080000Y-625999D03*
G01*
X1130000Y-625999D03*
G01*
X975000Y-1479000D03*
G01*
X1025000Y-1479000D03*
G01*
X1075000Y-1479000D03*
G01*
X1125000Y-1479000D03*
G01*
X975000Y-1240999D03*
G01*
X1025000Y-1240999D03*
G01*
X1075000Y-1240999D03*
G01*
X1125000Y-1240999D03*
G01*
X1615000Y-834000D03*
G01*
X1665000Y-834000D03*
G01*
X1715000Y-834000D03*
G01*
X1765000Y-834000D03*
G01*
X1615000Y-595999D03*
G01*
X1665000Y-595999D03*
G01*
X1715000Y-595999D03*
G01*
X1765000Y-595999D03*
G01*
X1600000Y-1504000D03*
G01*
X1650000Y-1504000D03*
G01*
X1700000Y-1504000D03*
G01*
X1750000Y-1504000D03*
G01*
X1600000Y-1265999D03*
G01*
X1650000Y-1265999D03*
G01*
X1700000Y-1265999D03*
G01*
X1750000Y-1265999D03*
G01*
X2080000Y-1124000D03*
G01*
X2130000Y-1124000D03*
G01*
X2180000Y-1124000D03*
G01*
X2230000Y-1124000D03*
G01*
X2080000Y-885999D03*
G01*
X2130000Y-885999D03*
G01*
X2180000Y-885999D03*
G01*
X2230000Y-885999D03*
D20*
G01*
X2475000Y-345000D03*
G01*
X2475000Y-245000D03*
D21*
G01*
X2675000Y-545000D03*
G01*
X2675000Y-145000D03*
D20*
G01*
X2450000Y-1055000D03*
G01*
X2450000Y-955000D03*
D21*
G01*
X2650000Y-1255000D03*
G01*
X2650000Y-855000D03*
D20*
G01*
X2440000Y-1735000D03*
G01*
X2440000Y-1635000D03*
D21*
G01*
X2640000Y-1935000D03*
G01*
X2640000Y-1535000D03*
D22*
G01*
X155000Y-1990000D03*
G01*
X1850000Y-1785000D03*
D23*
G01*
X165000Y-990000D03*
D24*
G01*
X165000Y-355000D03*
G01*
X155000Y-670000D03*
G01*
X155000Y-1340000D03*
G01*
X150000Y-1655000D03*
M02*
